<svg version="1.1" id="Layer_1" xmlns="http://www.w3.org/2000/svg" xmlns:xlink="http://www.w3.org/1999/xlink" x="0px" y="0px"
	 width="100%" viewBox="0 0 1001 1000" enable-background="new 0 0 1001 1000" xml:space="preserve">
<path fill="#4CC764" opacity="1.000000" stroke="none" 
	d="
M1.000002,540.000000 
	C1.000000,514.312439 1.000000,488.624878 1.415639,462.622314 
	C2.220241,461.128082 2.847157,459.971069 2.959686,458.766022 
	C3.709660,450.734680 3.755872,442.588928 5.144160,434.675659 
	C8.444465,415.863922 11.787390,397.024933 16.168352,378.445770 
	C22.546751,351.395721 31.434973,325.072571 43.144199,299.844513 
	C51.129070,282.640717 59.206051,265.369263 68.833145,249.067856 
	C79.285271,231.369400 91.005348,214.333145 103.250610,197.806946 
	C113.515755,183.953110 124.780243,170.727966 136.617188,158.182053 
	C148.433212,145.658310 161.104523,133.853851 174.149765,122.602348 
	C187.043808,111.481270 200.554565,101.003311 214.362808,91.029625 
	C240.316269,72.283432 268.055145,56.489422 297.512817,43.903465 
	C312.961456,37.302937 328.509857,30.783001 344.432739,25.488348 
	C360.341034,20.198553 376.680237,16.093781 393.006744,12.210439 
	C404.434265,9.492355 416.128021,7.822483 427.759216,6.055298 
	C436.514740,4.725032 445.364532,4.021913 454.155151,2.904011 
	C454.839752,2.816952 455.388245,1.659795 456.000000,0.999997 
	C486.020905,1.000000 516.041809,1.000000 546.372559,1.411459 
	C547.693237,2.213937 548.680847,2.857251 549.718750,2.952758 
	C554.475830,3.390485 559.310059,3.297936 564.001892,4.081937 
	C581.077332,6.935202 598.274475,9.339104 615.117981,13.241244 
	C648.227844,20.911839 680.391602,31.714275 711.206665,46.130623 
	C736.427734,57.929909 760.716492,71.472755 783.693298,87.290245 
	C806.062927,102.689766 827.319153,119.501259 846.763977,138.442871 
	C858.502869,149.878021 869.841797,161.803574 880.501526,174.244675 
	C891.572998,187.166275 902.134338,200.604309 911.945068,214.503677 
	C921.069031,227.430084 929.554199,240.909180 937.152161,254.784744 
	C946.407288,271.686646 954.971741,289.018890 962.869690,306.598663 
	C972.837341,328.785461 980.534302,351.865021 986.160095,375.550385 
	C989.776245,390.774689 993.229370,406.071167 995.839539,421.490356 
	C997.944824,433.927032 998.651489,446.598969 1000.096313,459.152985 
	C1000.174500,459.832672 1001.340393,460.387207 1002.000000,461.000000 
	C1002.000000,487.354218 1002.000000,513.708435 1001.585876,540.375610 
	C1000.784912,541.533569 1000.145874,542.350830 1000.049194,543.227844 
	C998.646667,555.953918 998.029846,568.814880 995.792236,581.388611 
	C992.882080,597.740845 988.856812,613.904053 985.028259,630.081543 
	C977.666260,661.190308 965.879517,690.709473 952.138855,719.470825 
	C939.701050,745.505127 925.248047,770.447632 907.815308,793.415955 
	C894.125122,811.453125 879.414490,828.758728 864.459290,845.776001 
	C856.161316,855.218140 846.622803,863.612000 837.294922,872.095154 
	C828.045593,880.506714 818.683777,888.858215 808.796875,896.492004 
	C787.300049,913.089783 764.692200,928.105103 740.764526,940.991211 
	C715.826782,954.421326 690.126953,966.300720 663.113159,974.909424 
	C646.211670,980.295532 628.995789,984.783936 611.750061,988.971130 
	C599.559021,991.931091 587.115356,993.918518 574.720093,995.946106 
	C566.315430,997.320801 557.792603,997.964417 549.342285,999.083374 
	C548.491821,999.196045 547.777466,1000.336487 547.000000,1001.000000 
	C516.979126,1001.000000 486.958221,1001.000000 456.627380,1000.588501 
	C455.805084,999.807800 455.325104,999.175842 454.775543,999.108032 
	C443.377014,997.701843 431.863129,996.943726 420.590942,994.868347 
	C403.594604,991.739014 386.642120,988.186523 369.894043,983.935303 
	C341.989197,976.852051 315.072510,966.822205 289.048706,954.501465 
	C261.317230,941.372192 234.543655,926.458618 210.104370,907.869507 
	C191.943466,894.055908 174.183945,879.609741 157.224121,864.357361 
	C145.061249,853.419006 134.270966,840.901428 123.327095,828.677612 
	C114.893341,819.257385 106.434563,809.705261 99.300873,799.310059 
	C87.293404,781.812805 76.079140,763.752930 64.987762,745.649963 
	C50.663063,722.269592 39.514893,697.284485 30.912817,671.329346 
	C23.790680,649.839600 17.131723,628.069458 12.325315,605.975952 
	C7.813608,585.237061 6.020511,563.908325 2.930870,542.853760 
	C2.780649,541.830139 1.665708,540.947998 1.000002,540.000000 
M431.313751,206.866318 
	C392.978943,213.434021 356.388031,225.331451 321.890442,243.320877 
	C272.800720,268.919647 231.586777,303.505341 202.366501,351.050232 
	C170.884918,402.274567 159.968613,457.566254 171.891037,516.842468 
	C181.753754,565.878052 205.918488,607.315674 241.057480,642.278809 
	C295.666016,696.614075 362.718506,725.852234 437.977814,738.180664 
	C447.382446,739.721252 456.648956,742.746460 465.627075,746.043396 
	C472.611725,748.608337 477.136169,754.363647 477.303528,762.080444 
	C477.493805,770.853699 477.307495,779.704956 476.332092,788.415588 
	C475.166992,798.820923 472.842957,809.090942 471.290894,819.459961 
	C469.161957,833.682739 475.749084,839.597839 489.813538,836.286377 
	C492.236816,835.715759 494.714081,835.127258 496.960236,834.097412 
	C504.513794,830.634399 512.206421,827.380981 519.433838,823.315002 
	C582.006653,788.113159 640.850342,747.429199 696.487549,702.095032 
	C729.650330,675.073364 760.419434,645.634155 786.181580,611.303162 
	C811.947937,576.966614 829.347473,539.042542 833.823303,495.966980 
	C839.537903,440.969971 826.256470,390.487579 795.889343,344.552948 
	C763.366272,295.357086 718.586243,260.589325 665.507568,236.023163 
	C621.964844,215.870483 576.082031,204.876053 528.239075,201.814209 
	C496.019684,199.752243 463.993317,201.180878 431.313751,206.866318 
z"/>
<path fill="#000000" opacity="1.000000" stroke="none" 
	d="
M455.531342,0.999997 
	C455.388245,1.659795 454.839752,2.816952 454.155151,2.904011 
	C445.364532,4.021913 436.514740,4.725032 427.759216,6.055298 
	C416.128021,7.822483 404.434265,9.492355 393.006744,12.210439 
	C376.680237,16.093781 360.341034,20.198553 344.432739,25.488348 
	C328.509857,30.783001 312.961456,37.302937 297.512817,43.903465 
	C268.055145,56.489422 240.316269,72.283432 214.362808,91.029625 
	C200.554565,101.003311 187.043808,111.481270 174.149765,122.602348 
	C161.104523,133.853851 148.433212,145.658310 136.617188,158.182053 
	C124.780243,170.727966 113.515755,183.953110 103.250610,197.806946 
	C91.005348,214.333145 79.285271,231.369400 68.833145,249.067856 
	C59.206051,265.369263 51.129070,282.640717 43.144199,299.844513 
	C31.434973,325.072571 22.546751,351.395721 16.168352,378.445770 
	C11.787390,397.024933 8.444465,415.863922 5.144160,434.675659 
	C3.755872,442.588928 3.709660,450.734680 2.959686,458.766022 
	C2.847157,459.971069 2.220241,461.128082 1.415639,462.153656 
	C1.000000,308.406738 1.000000,154.813446 1.000000,1.000000 
	C152.354156,1.000000 303.708435,1.000000 455.531342,0.999997 
z"/>
<path fill="#000000" opacity="1.000000" stroke="none" 
	d="
M1.000002,540.468628 
	C1.665708,540.947998 2.780649,541.830139 2.930870,542.853760 
	C6.020511,563.908325 7.813608,585.237061 12.325315,605.975952 
	C17.131723,628.069458 23.790680,649.839600 30.912817,671.329346 
	C39.514893,697.284485 50.663063,722.269592 64.987762,745.649963 
	C76.079140,763.752930 87.293404,781.812805 99.300873,799.310059 
	C106.434563,809.705261 114.893341,819.257385 123.327095,828.677612 
	C134.270966,840.901428 145.061249,853.419006 157.224121,864.357361 
	C174.183945,879.609741 191.943466,894.055908 210.104370,907.869507 
	C234.543655,926.458618 261.317230,941.372192 289.048706,954.501465 
	C315.072510,966.822205 341.989197,976.852051 369.894043,983.935303 
	C386.642120,988.186523 403.594604,991.739014 420.590942,994.868347 
	C431.863129,996.943726 443.377014,997.701843 454.775543,999.108032 
	C455.325104,999.175842 455.805084,999.807800 456.158752,1000.588501 
	C304.405762,1001.000000 152.811539,1001.000000 1.000000,1001.000000 
	C1.000000,847.645813 1.000000,694.291565 1.000002,540.468628 
z"/>
<path fill="#000000" opacity="1.000000" stroke="none" 
	d="
M1002.000000,460.531342 
	C1001.340393,460.387207 1000.174500,459.832672 1000.096313,459.152985 
	C998.651489,446.598969 997.944824,433.927032 995.839539,421.490356 
	C993.229370,406.071167 989.776245,390.774689 986.160095,375.550385 
	C980.534302,351.865021 972.837341,328.785461 962.869690,306.598663 
	C954.971741,289.018890 946.407288,271.686646 937.152161,254.784744 
	C929.554199,240.909180 921.069031,227.430084 911.945068,214.503677 
	C902.134338,200.604309 891.572998,187.166275 880.501526,174.244675 
	C869.841797,161.803574 858.502869,149.878021 846.763977,138.442871 
	C827.319153,119.501259 806.062927,102.689766 783.693298,87.290245 
	C760.716492,71.472755 736.427734,57.929909 711.206665,46.130623 
	C680.391602,31.714275 648.227844,20.911839 615.117981,13.241244 
	C598.274475,9.339104 581.077332,6.935202 564.001892,4.081937 
	C559.310059,3.297936 554.475830,3.390485 549.718750,2.952758 
	C548.680847,2.857251 547.693237,2.213937 546.841248,1.411459 
	C698.594116,1.000000 850.188293,1.000000 1002.000000,1.000000 
	C1002.000000,154.020828 1002.000000,307.041748 1002.000000,460.531342 
z"/>
<path fill="#000000" opacity="1.000000" stroke="none" 
	d="
M547.468628,1001.000000 
	C547.777466,1000.336487 548.491821,999.196045 549.342285,999.083374 
	C557.792603,997.964417 566.315430,997.320801 574.720093,995.946106 
	C587.115356,993.918518 599.559021,991.931091 611.750061,988.971130 
	C628.995789,984.783936 646.211670,980.295532 663.113159,974.909424 
	C690.126953,966.300720 715.826782,954.421326 740.764526,940.991211 
	C764.692200,928.105103 787.300049,913.089783 808.796875,896.492004 
	C818.683777,888.858215 828.045593,880.506714 837.294922,872.095154 
	C846.622803,863.612000 856.161316,855.218140 864.459290,845.776001 
	C879.414490,828.758728 894.125122,811.453125 907.815308,793.415955 
	C925.248047,770.447632 939.701050,745.505127 952.138855,719.470825 
	C965.879517,690.709473 977.666260,661.190308 985.028259,630.081543 
	C988.856812,613.904053 992.882080,597.740845 995.792236,581.388611 
	C998.029846,568.814880 998.646667,555.953918 1000.049194,543.227844 
	C1000.145874,542.350830 1000.784912,541.533569 1001.585876,540.844238 
	C1002.000000,694.260010 1002.000000,847.520020 1002.000000,1001.000000 
	C850.645813,1001.000000 699.291565,1001.000000 547.468628,1001.000000 
z"/>
<path fill="#FEFFFE" opacity="1.000000" stroke="none" 
	d="
M431.742371,206.800354 
	C463.993317,201.180878 496.019684,199.752243 528.239075,201.814209 
	C576.082031,204.876053 621.964844,215.870483 665.507568,236.023163 
	C718.586243,260.589325 763.366272,295.357086 795.889343,344.552948 
	C826.256470,390.487579 839.537903,440.969971 833.823303,495.966980 
	C829.347473,539.042542 811.947937,576.966614 786.181580,611.303162 
	C760.419434,645.634155 729.650330,675.073364 696.487549,702.095032 
	C640.850342,747.429199 582.006653,788.113159 519.433838,823.315002 
	C512.206421,827.380981 504.513794,830.634399 496.960236,834.097412 
	C494.714081,835.127258 492.236816,835.715759 489.813538,836.286377 
	C475.749084,839.597839 469.161957,833.682739 471.290894,819.459961 
	C472.842957,809.090942 475.166992,798.820923 476.332092,788.415588 
	C477.307495,779.704956 477.493805,770.853699 477.303528,762.080444 
	C477.136169,754.363647 472.611725,748.608337 465.627075,746.043396 
	C456.648956,742.746460 447.382446,739.721252 437.977814,738.180664 
	C362.718506,725.852234 295.666016,696.614075 241.057480,642.278809 
	C205.918488,607.315674 181.753754,565.878052 171.891037,516.842468 
	C159.968613,457.566254 170.884918,402.274567 202.366501,351.050232 
	C231.586777,303.505341 272.800720,268.919647 321.890442,243.320877 
	C356.388031,225.331451 392.978943,213.434021 431.742371,206.800354 
M499.166443,498.500061 
	C499.166443,488.133514 499.166443,477.766968 499.166443,466.033081 
	C501.122650,468.513885 502.164093,469.765808 503.132050,471.072205 
	C523.359253,498.370758 543.629578,525.637695 563.738403,553.023254 
	C566.480225,556.757202 569.500183,558.517456 574.198914,558.251526 
	C580.344360,557.903687 586.524536,558.193298 592.689392,558.158264 
	C599.163147,558.121521 601.141663,556.274536 601.146118,549.896973 
	C601.179382,502.575470 601.178223,455.253998 601.147827,407.932495 
	C601.143799,401.680725 599.059143,399.641907 592.675720,399.537537 
	C586.512268,399.436707 580.345764,399.490662 574.180725,399.516083 
	C566.170715,399.549103 564.520020,401.196533 564.515564,409.227600 
	C564.501343,434.554596 564.510010,459.881592 564.509827,485.208588 
	C564.509827,486.942963 564.509888,488.677338 564.509888,491.897888 
	C562.189148,488.894257 560.850525,487.223145 559.576782,485.504028 
	C539.548340,458.473206 519.485718,431.467560 499.562164,404.359619 
	C497.163269,401.095703 494.486938,399.386230 490.415680,399.475067 
	C483.753845,399.620514 477.084747,399.421051 470.422150,399.547699 
	C464.653534,399.657349 462.549683,401.720215 462.543823,407.507721 
	C462.495422,455.162384 462.493530,502.817169 462.548157,550.471802 
	C462.554688,556.144470 464.768036,558.106995 470.612427,558.153015 
	C477.277039,558.205505 483.942444,558.191345 490.607300,558.158691 
	C497.313263,558.125854 499.140930,556.302673 499.154663,549.487610 
	C499.188263,532.825195 499.166138,516.162598 499.166443,498.500061 
M688.500488,521.511292 
	C679.215027,521.511292 669.929626,521.511292 660.511292,521.511292 
	C660.511292,513.113831 660.511292,505.389618 660.511292,497.165527 
	C662.638855,497.165527 664.436401,497.165558 666.234009,497.165527 
	C684.894104,497.165222 703.554199,497.189056 722.214233,497.150726 
	C728.333862,497.138123 730.343262,495.200256 730.455811,489.116425 
	C730.572815,482.787476 730.509216,476.454651 730.481934,470.123688 
	C730.447815,462.202209 728.770325,460.534668 720.664490,460.521515 
	C702.504333,460.492065 684.343994,460.520203 666.183777,460.498474 
	C664.264709,460.496185 662.345947,460.318298 660.626831,460.231903 
	C660.626831,451.871613 660.626831,444.145782 660.626831,436.165497 
	C662.911499,436.165497 664.735229,436.165466 666.558960,436.165436 
	C685.052429,436.165192 703.545898,436.186218 722.039307,436.153015 
	C728.421997,436.141541 730.375305,434.220825 730.462280,427.791718 
	C730.554626,420.962067 730.580566,414.128204 730.446716,407.299896 
	C730.339172,401.810211 728.297241,399.593445 722.838440,399.576538 
	C692.349548,399.482178 661.860229,399.484985 631.371338,399.567688 
	C625.848450,399.582672 623.854370,401.761078 623.851440,407.212708 
	C623.825378,455.029114 623.823364,502.845520 623.854248,550.661926 
	C623.857788,556.208374 625.808228,558.137329 631.421326,558.144653 
	C661.743958,558.184082 692.066528,558.182556 722.389160,558.147827 
	C728.384521,558.140991 730.361938,556.122070 730.459778,549.941589 
	C730.562622,543.445496 730.529541,536.946228 730.474731,530.449036 
	C730.415771,523.464417 728.552307,521.578491 721.489075,521.532471 
	C710.826599,521.462952 700.163452,521.512329 688.500488,521.511292 
M276.839447,551.085999 
	C276.931458,556.090210 279.620575,558.186218 284.472839,558.180725 
	C314.955109,558.146057 345.437469,558.186157 375.919739,558.141174 
	C381.403900,558.133057 383.360779,556.122986 383.457794,550.541931 
	C383.564911,544.380676 383.492401,538.216187 383.487061,532.053101 
	C383.479126,522.916687 382.122345,521.520630 373.157684,521.514954 
	C355.168121,521.503540 337.178528,521.518555 319.188965,521.499634 
	C317.423920,521.497803 315.659088,521.336121 313.488708,521.228516 
	C313.488708,518.752563 313.488708,516.779114 313.488708,514.805664 
	C313.488495,479.659363 313.496094,444.513062 313.482208,409.366760 
	C313.479004,401.263580 311.828857,399.576355 303.911316,399.520813 
	C298.081665,399.479919 292.251373,399.487915 286.421570,399.518250 
	C278.365112,399.560181 276.838226,401.112244 276.837311,409.250336 
	C276.832062,456.223114 276.835266,503.195862 276.839447,551.085999 
M440.001495,527.500000 
	C440.001465,487.884949 440.006714,448.269928 439.996552,408.654877 
	C439.994690,401.381683 438.173431,399.571655 430.792297,399.510925 
	C425.133362,399.464386 419.473755,399.492188 413.814484,399.502289 
	C404.743500,399.518494 403.168243,401.117096 403.167511,410.337555 
	C403.163940,455.944794 403.165649,501.552002 403.167206,547.159241 
	C403.167236,548.490662 403.101471,549.829102 403.211578,551.152222 
	C403.583221,555.617065 405.757477,558.205261 410.527802,558.175110 
	C417.851288,558.128845 425.175964,558.228027 432.498810,558.146301 
	C437.825928,558.086792 439.934814,555.905884 439.984070,550.471252 
	C440.050476,543.148010 440.001160,535.823792 440.001495,527.500000 
z"/>
<path fill="#4CC764" opacity="1.000000" stroke="none" 
	d="
M499.166443,499.000092 
	C499.166138,516.162598 499.188263,532.825195 499.154663,549.487610 
	C499.140930,556.302673 497.313263,558.125854 490.607300,558.158691 
	C483.942444,558.191345 477.277039,558.205505 470.612427,558.153015 
	C464.768036,558.106995 462.554688,556.144470 462.548157,550.471802 
	C462.493530,502.817169 462.495422,455.162384 462.543823,407.507721 
	C462.549683,401.720215 464.653534,399.657349 470.422150,399.547699 
	C477.084747,399.421051 483.753845,399.620514 490.415680,399.475067 
	C494.486938,399.386230 497.163269,401.095703 499.562164,404.359619 
	C519.485718,431.467560 539.548340,458.473206 559.576782,485.504028 
	C560.850525,487.223145 562.189148,488.894257 564.509888,491.897888 
	C564.509888,488.677338 564.509827,486.942963 564.509827,485.208588 
	C564.510010,459.881592 564.501343,434.554596 564.515564,409.227600 
	C564.520020,401.196533 566.170715,399.549103 574.180725,399.516083 
	C580.345764,399.490662 586.512268,399.436707 592.675720,399.537537 
	C599.059143,399.641907 601.143799,401.680725 601.147827,407.932495 
	C601.178223,455.253998 601.179382,502.575470 601.146118,549.896973 
	C601.141663,556.274536 599.163147,558.121521 592.689392,558.158264 
	C586.524536,558.193298 580.344360,557.903687 574.198914,558.251526 
	C569.500183,558.517456 566.480225,556.757202 563.738403,553.023254 
	C543.629578,525.637695 523.359253,498.370758 503.132050,471.072205 
	C502.164093,469.765808 501.122650,468.513885 499.166443,466.033081 
	C499.166443,477.766968 499.166443,488.133514 499.166443,499.000092 
z"/>
<path fill="#4CC764" opacity="1.000000" stroke="none" 
	d="
M689.000488,521.511230 
	C700.163452,521.512329 710.826599,521.462952 721.489075,521.532471 
	C728.552307,521.578491 730.415771,523.464417 730.474731,530.449036 
	C730.529541,536.946228 730.562622,543.445496 730.459778,549.941589 
	C730.361938,556.122070 728.384521,558.140991 722.389160,558.147827 
	C692.066528,558.182556 661.743958,558.184082 631.421326,558.144653 
	C625.808228,558.137329 623.857788,556.208374 623.854248,550.661926 
	C623.823364,502.845520 623.825378,455.029114 623.851440,407.212708 
	C623.854370,401.761078 625.848450,399.582672 631.371338,399.567688 
	C661.860229,399.484985 692.349548,399.482178 722.838440,399.576538 
	C728.297241,399.593445 730.339172,401.810211 730.446716,407.299896 
	C730.580566,414.128204 730.554626,420.962067 730.462280,427.791718 
	C730.375305,434.220825 728.421997,436.141541 722.039307,436.153015 
	C703.545898,436.186218 685.052429,436.165192 666.558960,436.165436 
	C664.735229,436.165466 662.911499,436.165497 660.626831,436.165497 
	C660.626831,444.145782 660.626831,451.871613 660.626831,460.231903 
	C662.345947,460.318298 664.264709,460.496185 666.183777,460.498474 
	C684.343994,460.520203 702.504333,460.492065 720.664490,460.521515 
	C728.770325,460.534668 730.447815,462.202209 730.481934,470.123688 
	C730.509216,476.454651 730.572815,482.787476 730.455811,489.116425 
	C730.343262,495.200256 728.333862,497.138123 722.214233,497.150726 
	C703.554199,497.189056 684.894104,497.165222 666.234009,497.165527 
	C664.436401,497.165558 662.638855,497.165527 660.511292,497.165527 
	C660.511292,505.389618 660.511292,513.113831 660.511292,521.511292 
	C669.929626,521.511292 679.215027,521.511292 689.000488,521.511230 
z"/>
<path fill="#4CC764" opacity="1.000000" stroke="none" 
	d="
M276.837524,550.627319 
	C276.835266,503.195862 276.832062,456.223114 276.837311,409.250336 
	C276.838226,401.112244 278.365112,399.560181 286.421570,399.518250 
	C292.251373,399.487915 298.081665,399.479919 303.911316,399.520813 
	C311.828857,399.576355 313.479004,401.263580 313.482208,409.366760 
	C313.496094,444.513062 313.488495,479.659363 313.488708,514.805664 
	C313.488708,516.779114 313.488708,518.752563 313.488708,521.228516 
	C315.659088,521.336121 317.423920,521.497803 319.188965,521.499634 
	C337.178528,521.518555 355.168121,521.503540 373.157684,521.514954 
	C382.122345,521.520630 383.479126,522.916687 383.487061,532.053101 
	C383.492401,538.216187 383.564911,544.380676 383.457794,550.541931 
	C383.360779,556.122986 381.403900,558.133057 375.919739,558.141174 
	C345.437469,558.186157 314.955109,558.146057 284.472839,558.180725 
	C279.620575,558.186218 276.931458,556.090210 276.837524,550.627319 
z"/>
<path fill="#4DC765" opacity="1.000000" stroke="none" 
	d="
M440.001495,528.000000 
	C440.001160,535.823792 440.050476,543.148010 439.984070,550.471252 
	C439.934814,555.905884 437.825928,558.086792 432.498810,558.146301 
	C425.175964,558.228027 417.851288,558.128845 410.527802,558.175110 
	C405.757477,558.205261 403.583221,555.617065 403.211578,551.152222 
	C403.101471,549.829102 403.167236,548.490662 403.167206,547.159241 
	C403.165649,501.552002 403.163940,455.944794 403.167511,410.337555 
	C403.168243,401.117096 404.743500,399.518494 413.814484,399.502289 
	C419.473755,399.492188 425.133362,399.464386 430.792297,399.510925 
	C438.173431,399.571655 439.994690,401.381683 439.996552,408.654877 
	C440.006714,448.269928 440.001465,487.884949 440.001495,528.000000 
z"/>
</svg>
