<svg version="1.1" id="Layer_1" xmlns="http://www.w3.org/2000/svg" xmlns:xlink="http://www.w3.org/1999/xlink" x="0px" y="0px"
	 width="100%" viewBox="0 0 300 300" enable-background="new 0 0 300 300" xml:space="preserve">
<path fill="#FF0000" opacity="1.000000" stroke="none" 
	d="
M301.000000,126.000000 
	C301.000000,142.354233 301.000000,158.708450 300.623322,175.308838 
	C299.839996,176.225677 299.167358,176.858597 299.066040,177.572586 
	C297.102814,191.410492 292.526031,204.453613 286.476685,216.931107 
	C276.470459,237.570190 262.293823,254.974335 244.286819,269.203735 
	C224.747467,284.644043 202.749649,294.669128 178.201355,299.072174 
	C177.378784,299.219727 176.729858,300.335510 176.000000,301.000000 
	C159.645767,301.000000 143.291550,301.000000 126.691177,300.623352 
	C125.774361,299.840027 125.141426,299.167389 124.427437,299.066101 
	C110.589546,297.102783 97.546417,292.526062 85.068901,286.476715 
	C64.429810,276.470490 47.025749,262.293762 32.796307,244.286804 
	C17.355963,224.747482 7.330934,202.749664 2.927844,178.201370 
	C2.780302,177.378784 1.664482,176.729874 1.000001,176.000000 
	C1.000000,159.645767 1.000000,143.291550 1.376666,126.691162 
	C2.159972,125.774345 2.832614,125.141403 2.933912,124.427414 
	C4.897144,110.589485 9.473971,97.546387 15.523309,85.068878 
	C25.529537,64.429802 39.706226,47.025730 57.713207,32.796295 
	C77.252548,17.355967 99.250359,7.330934 123.798645,2.927838 
	C124.621223,2.780296 125.270134,1.664476 126.000000,0.999998 
	C142.354233,1.000000 158.708450,1.000000 175.308838,1.376671 
	C176.225647,2.159977 176.847656,2.760970 177.574554,2.942913 
	C184.189209,4.598588 190.937393,5.813542 197.429932,7.848428 
	C226.526947,16.967985 250.245209,33.987972 269.190430,57.723427 
	C284.731201,77.193657 294.698608,99.236931 299.072296,123.798790 
	C299.218689,124.620872 300.335510,125.270164 301.000000,126.000000 
M58.210941,93.793533 
	C56.465488,98.235245 53.850666,102.538399 53.117073,107.141380 
	C48.682755,134.964935 48.826046,162.925888 52.331055,190.817505 
	C54.653248,209.296738 63.255806,218.080582 80.269638,218.860916 
	C109.209198,220.188202 138.181412,221.385956 167.142685,221.454224 
	C186.754883,221.500458 206.433441,220.146072 225.965195,218.226395 
	C239.158096,216.929733 246.663116,209.086197 248.721725,196.019226 
	C253.419724,166.198944 253.528625,136.267471 248.805939,106.432503 
	C246.702896,93.146912 239.162079,85.613258 225.728867,83.915855 
	C212.704849,82.270164 199.538940,81.504433 186.410248,80.976974 
	C151.092712,79.558075 115.791138,79.886505 80.543983,82.926537 
	C71.931526,83.669350 64.237251,86.135849 58.210941,93.793533 
z"/>
<path fill="#000000" opacity="1.000000" stroke="none" 
	d="
M125.531342,0.999998 
	C125.270134,1.664476 124.621223,2.780296 123.798645,2.927838 
	C99.250359,7.330934 77.252548,17.355967 57.713207,32.796295 
	C39.706226,47.025730 25.529537,64.429802 15.523309,85.068878 
	C9.473971,97.546387 4.897144,110.589485 2.933912,124.427414 
	C2.832614,125.141403 2.159972,125.774345 1.376666,126.222504 
	C1.000000,84.406364 1.000000,42.812733 1.000000,1.000000 
	C42.353970,1.000000 83.708328,1.000000 125.531342,0.999998 
z"/>
<path fill="#000000" opacity="1.000000" stroke="none" 
	d="
M1.000001,176.468658 
	C1.664482,176.729874 2.780302,177.378784 2.927844,178.201370 
	C7.330934,202.749664 17.355963,224.747482 32.796307,244.286804 
	C47.025749,262.293762 64.429810,276.470490 85.068901,286.476715 
	C97.546417,292.526062 110.589546,297.102783 124.427437,299.066101 
	C125.141426,299.167389 125.774361,299.840027 126.222519,300.623352 
	C84.406364,301.000000 42.812729,301.000000 1.000000,301.000000 
	C1.000000,259.646027 1.000000,218.291672 1.000001,176.468658 
z"/>
<path fill="#000000" opacity="1.000000" stroke="none" 
	d="
M176.468658,301.000000 
	C176.729858,300.335510 177.378784,299.219727 178.201355,299.072174 
	C202.749649,294.669128 224.747467,284.644043 244.286819,269.203735 
	C262.293823,254.974335 276.470459,237.570190 286.476685,216.931107 
	C292.526031,204.453613 297.102814,191.410492 299.066040,177.572586 
	C299.167358,176.858597 299.839996,176.225677 300.623322,175.777496 
	C301.000000,217.593643 301.000000,259.187286 301.000000,301.000000 
	C259.646027,301.000000 218.291672,301.000000 176.468658,301.000000 
z"/>
<path fill="#000000" opacity="1.000000" stroke="none" 
	d="
M301.000000,125.531342 
	C300.335510,125.270164 299.218689,124.620872 299.072296,123.798790 
	C294.698608,99.236931 284.731201,77.193657 269.190430,57.723427 
	C250.245209,33.987972 226.526947,16.967985 197.429932,7.848428 
	C190.937393,5.813542 184.189209,4.598588 177.574554,2.942913 
	C176.847656,2.760970 176.225647,2.159977 175.777496,1.376671 
	C217.593643,1.000000 259.187286,1.000000 301.000000,1.000000 
	C301.000000,42.353970 301.000000,83.708328 301.000000,125.531342 
z"/>
<path fill="#FFFEFE" opacity="1.000000" stroke="none" 
	d="
M58.441116,93.513885 
	C64.237251,86.135849 71.931526,83.669350 80.543983,82.926537 
	C115.791138,79.886505 151.092712,79.558075 186.410248,80.976974 
	C199.538940,81.504433 212.704849,82.270164 225.728867,83.915855 
	C239.162079,85.613258 246.702896,93.146912 248.805939,106.432503 
	C253.528625,136.267471 253.419724,166.198944 248.721725,196.019226 
	C246.663116,209.086197 239.158096,216.929733 225.965195,218.226395 
	C206.433441,220.146072 186.754883,221.500458 167.142685,221.454224 
	C138.181412,221.385956 109.209198,220.188202 80.269638,218.860916 
	C63.255806,218.080582 54.653248,209.296738 52.331055,190.817505 
	C48.826046,162.925888 48.682755,134.964935 53.117073,107.141380 
	C53.850666,102.538399 56.465488,98.235245 58.441116,93.513885 
M137.157425,124.322868 
	C135.202576,123.262077 133.247742,122.201279 131.264679,121.125175 
	C131.264679,141.294098 131.264679,160.957153 131.264679,181.070801 
	C148.756989,171.004349 165.768677,161.214478 183.452652,151.037720 
	C167.660431,141.949997 152.711395,133.347488 137.157425,124.322868 
z"/>
<path fill="#FF0202" opacity="1.000000" stroke="none" 
	d="
M137.459900,124.533920 
	C152.711395,133.347488 167.660431,141.949997 183.452652,151.037720 
	C165.768677,161.214478 148.756989,171.004349 131.264679,181.070801 
	C131.264679,160.957153 131.264679,141.294098 131.264679,121.125175 
	C133.247742,122.201279 135.202576,123.262077 137.459900,124.533920 
z"/>
</svg>
